<svg width="1200" height="600" viewBox="0 0 1200 600" fill="none" xmlns="http://www.w3.org/2000/svg">
<g clip-path="url(#clip0_203_2)">
<path d="M1171.09 599.915H29.3959C21.6023 599.908 14.1305 597.49 8.61958 593.191C3.10869 588.892 0.00880832 583.063 0 576.983V27.7988C0.00635138 23.3447 2.27727 19.0745 6.31455 15.9249C10.3518 12.7753 15.8257 11.0035 21.5354 10.9984H1178.58C1184.39 11.0036 1189.96 12.8059 1194.07 16.0099C1198.17 19.214 1200.48 23.5581 1200.49 28.0893V576.983C1200.48 583.063 1197.38 588.892 1191.87 593.191C1186.36 597.49 1178.89 599.908 1171.09 599.915V599.915Z" fill="#F2F2F2"/>
<path d="M1133.75 571H71.2465C55.6712 571 43 561.914 43 550.747V82.0204C43 73.7383 52.3897 67 63.9313 67H1140.72C1152.45 67 1162 73.8494 1162 82.2678V550.747C1162 561.914 1149.33 571 1133.75 571Z" fill="white"/>
<path d="M1199 38H0V25.2059C0.0112876 18.5212 3.11995 12.1132 8.64399 7.38782C14.168 2.66244 21.6563 0.00554289 29.4661 0H1169.53C1177.34 0.00548652 1184.83 2.66236 1190.36 7.38775C1195.88 12.1131 1198.99 18.5211 1199 25.2059V38Z" fill="#3F3D56"/>
<path d="M53.0961 23.9976C57.3874 23.9976 60.8663 21.9831 60.8663 19.4982C60.8663 17.0133 57.3874 14.9988 53.0961 14.9988C48.8047 14.9988 45.3259 17.0133 45.3259 19.4982C45.3259 21.9831 48.8047 23.9976 53.0961 23.9976Z" fill="white"/>
<path d="M82.8817 23.9976C87.1731 23.9976 90.6519 21.9831 90.6519 19.4982C90.6519 17.0133 87.1731 14.9988 82.8817 14.9988C78.5904 14.9988 75.1116 17.0133 75.1116 19.4982C75.1116 21.9831 78.5904 23.9976 82.8817 23.9976Z" fill="white"/>
<path d="M111.372 23.9976C115.664 23.9976 119.142 21.9831 119.142 19.4982C119.142 17.0133 115.664 14.9988 111.372 14.9988C107.081 14.9988 103.602 17.0133 103.602 19.4982C103.602 21.9831 107.081 23.9976 111.372 23.9976Z" fill="white"/>
<path d="M554.509 143.98H190.131C184.699 143.98 179.489 142.926 175.648 141.051C171.806 139.176 169.649 136.633 169.649 133.981C169.649 131.329 171.806 128.786 175.648 126.911C179.489 125.036 184.699 123.982 190.131 123.982H554.509C559.942 123.982 565.152 125.036 568.993 126.911C572.834 128.786 574.992 131.329 574.992 133.981C574.992 136.633 572.834 139.176 568.993 141.051C565.152 142.926 559.942 143.98 554.509 143.98V143.98Z" fill="#CCCCCC"/>
<path d="M1010.23 143.98H643.522C638.055 143.98 632.811 142.926 628.945 141.051C625.08 139.176 622.908 136.633 622.908 133.981C622.908 131.329 625.08 128.786 628.945 126.911C632.811 125.036 638.055 123.982 643.522 123.982H1010.23C1015.69 123.982 1020.94 125.036 1024.8 126.911C1028.67 128.786 1030.84 131.329 1030.84 133.981C1030.84 136.633 1028.67 139.176 1024.8 141.051C1020.94 142.926 1015.69 143.98 1010.23 143.98V143.98Z" fill="#CCCCCC"/>
<path d="M1010.32 182.974H375.355C369.914 182.974 364.695 181.921 360.847 180.046C356.999 178.17 354.837 175.627 354.837 172.976C354.837 170.324 356.999 167.781 360.847 165.905C364.695 164.03 369.914 162.977 375.355 162.977H1010.32C1015.77 162.977 1020.98 164.03 1024.83 165.905C1028.68 167.781 1030.84 170.324 1030.84 172.976C1030.84 175.627 1028.68 178.17 1024.83 180.046C1020.98 181.921 1015.77 182.974 1010.32 182.974Z" fill="#CCCCCC"/>
<path d="M556.943 104.985H190.237C184.774 104.982 179.538 103.927 175.677 102.052C171.817 100.178 169.649 97.6362 169.649 94.9866C169.649 92.3369 171.817 89.7956 175.677 87.9208C179.538 86.0461 184.774 84.9913 190.237 84.988H556.943C559.652 84.9864 562.335 85.2438 564.839 85.7455C567.343 86.2473 569.619 86.9835 571.536 87.9121C573.452 88.8407 574.973 89.9435 576.01 91.1574C577.048 92.3713 577.582 93.6725 577.582 94.9866C577.582 96.3006 577.048 97.6018 576.01 98.8157C574.973 100.03 573.452 101.132 571.536 102.061C569.619 102.99 567.343 103.726 564.839 104.228C562.335 104.729 559.652 104.987 556.943 104.985V104.985Z" fill="#CCCCCC"/>
<path d="M757.745 104.985H653.834C648.379 104.985 643.149 103.932 639.292 102.057C635.435 100.182 633.268 97.6383 633.268 94.9865C633.268 92.3348 635.435 89.7916 639.292 87.9165C643.149 86.0414 648.379 84.988 653.834 84.988H757.745C763.2 84.988 768.431 86.0414 772.288 87.9165C776.144 89.7916 778.311 92.3348 778.311 94.9865C778.311 97.6383 776.144 100.182 772.288 102.057C768.431 103.932 763.2 104.985 757.745 104.985Z" fill="#CCCCCC"/>
<path d="M757.745 465.934H653.834C648.379 465.934 643.149 464.881 639.292 463.006C635.435 461.13 633.268 458.587 633.268 455.935C633.268 453.284 635.435 450.74 639.292 448.865C643.149 446.99 648.379 445.937 653.834 445.937H757.745C763.2 445.937 768.431 446.99 772.288 448.865C776.144 450.74 778.311 453.284 778.311 455.935C778.311 458.587 776.144 461.13 772.288 463.006C768.431 464.881 763.2 465.934 757.745 465.934Z" fill="#CCCCCC"/>
<path d="M295.211 182.974H190.372C184.874 182.971 179.603 181.916 175.717 180.041C171.831 178.166 169.649 175.625 169.649 172.976C169.649 170.326 171.831 167.785 175.717 165.91C179.603 164.035 184.874 162.98 190.372 162.977H295.211C297.938 162.975 300.639 163.233 303.16 163.735C305.68 164.236 307.971 164.972 309.9 165.901C311.83 166.83 313.36 167.932 314.405 169.146C315.449 170.36 315.987 171.661 315.987 172.976C315.987 174.29 315.449 175.591 314.405 176.805C313.36 178.019 311.83 179.121 309.9 180.05C307.971 180.979 305.68 181.715 303.16 182.217C300.639 182.718 297.938 182.976 295.211 182.974Z" fill="#CCCCCC"/>
<path d="M554.509 504.928H190.131C184.699 504.928 179.489 503.875 175.648 502C171.806 500.125 169.649 497.582 169.649 494.93C169.649 492.278 171.806 489.735 175.648 487.86C179.489 485.985 184.699 484.931 190.131 484.931H554.509C557.199 484.931 559.863 485.19 562.348 485.692C564.833 486.195 567.091 486.931 568.993 487.86C570.895 488.788 572.404 489.891 573.433 491.104C574.462 492.317 574.992 493.617 574.992 494.93C574.992 496.243 574.462 497.543 573.433 498.756C572.404 499.969 570.895 501.072 568.993 502C567.091 502.928 564.833 503.665 562.348 504.167C559.863 504.67 557.199 504.928 554.509 504.928V504.928Z" fill="#CCCCCC"/>
<path d="M1010.23 504.928H643.522C638.055 504.928 632.811 503.875 628.945 502C625.08 500.125 622.908 497.582 622.908 494.93C622.908 492.278 625.08 489.735 628.945 487.86C632.811 485.985 638.055 484.931 643.522 484.931H1010.23C1012.93 484.931 1015.62 485.19 1018.12 485.692C1020.62 486.195 1022.89 486.931 1024.8 487.86C1026.72 488.788 1028.24 489.891 1029.27 491.104C1030.31 492.317 1030.84 493.617 1030.84 494.93C1030.84 496.243 1030.31 497.543 1029.27 498.756C1028.24 499.969 1026.72 501.072 1024.8 502C1022.89 502.928 1020.62 503.665 1018.12 504.167C1015.62 504.67 1012.93 504.928 1010.23 504.928V504.928Z" fill="#CCCCCC"/>
<path d="M1010.3 543.923H375.354C369.913 543.923 364.694 542.87 360.847 540.994C356.999 539.119 354.837 536.576 354.837 533.924C354.837 531.273 356.999 528.729 360.847 526.854C364.694 524.979 369.913 523.926 375.354 523.926H1010.3C1013 523.924 1015.67 524.182 1018.16 524.683C1020.65 525.185 1022.92 525.921 1024.82 526.85C1026.73 527.779 1028.24 528.881 1029.28 530.095C1030.31 531.309 1030.84 532.61 1030.84 533.924C1030.84 535.238 1030.31 536.54 1029.28 537.754C1028.24 538.967 1026.73 540.07 1024.82 540.999C1022.92 541.927 1020.65 542.664 1018.16 543.165C1015.67 543.667 1013 543.925 1010.3 543.923Z" fill="#CCCCCC"/>
<path d="M554.509 465.934H190.131C184.699 465.934 179.489 464.881 175.648 463.006C171.806 461.13 169.649 458.587 169.649 455.935C169.649 453.284 171.806 450.74 175.648 448.865C179.489 446.99 184.699 445.937 190.131 445.937H554.509C559.942 445.937 565.152 446.99 568.993 448.865C572.834 450.74 574.992 453.284 574.992 455.935C574.992 458.587 572.834 461.13 568.993 463.006C565.152 464.881 559.942 465.934 554.509 465.934Z" fill="#CCCCCC"/>
<path d="M295.215 543.923H190.394C184.892 543.923 179.615 542.87 175.725 540.994C171.834 539.119 169.649 536.576 169.649 533.924C169.649 531.273 171.834 528.729 175.725 526.854C179.615 524.979 184.892 523.926 190.394 523.926H295.215C297.942 523.924 300.642 524.182 303.162 524.683C305.682 525.185 307.972 525.921 309.901 526.85C311.83 527.779 313.361 528.881 314.405 530.095C315.449 531.309 315.987 532.61 315.987 533.924C315.987 535.238 315.449 536.54 314.405 537.754C313.361 538.967 311.83 540.07 309.901 540.999C307.972 541.927 305.682 542.664 303.162 543.165C300.642 543.667 297.942 543.925 295.215 543.923Z" fill="#CCCCCC"/>
<path d="M306.82 309C306.365 309 306.014 308.876 305.766 308.628C305.518 308.339 305.394 307.987 305.394 307.574V267.026C305.394 266.613 305.518 266.282 305.766 266.034C306.014 265.745 306.365 265.6 306.82 265.6H310.106C310.519 265.6 310.85 265.745 311.098 266.034C311.346 266.282 311.47 266.613 311.47 267.026V303.606H332.116C332.571 303.606 332.922 303.751 333.17 304.04C333.418 304.288 333.542 304.639 333.542 305.094V307.574C333.542 307.987 333.418 308.339 333.17 308.628C332.922 308.876 332.571 309 332.116 309H306.82ZM351.692 309.62C347.434 309.62 344.045 308.318 341.524 305.714C339.002 303.069 337.618 299.473 337.37 294.926C337.328 294.389 337.308 293.707 337.308 292.88C337.308 292.012 337.328 291.309 337.37 290.772C337.535 287.837 338.217 285.275 339.416 283.084C340.614 280.852 342.247 279.137 344.314 277.938C346.422 276.739 348.881 276.14 351.692 276.14C354.833 276.14 357.458 276.801 359.566 278.124C361.715 279.447 363.348 281.327 364.464 283.766C365.58 286.205 366.138 289.057 366.138 292.322V293.376C366.138 293.831 365.993 294.182 365.704 294.43C365.456 294.678 365.125 294.802 364.712 294.802H343.26C343.26 294.843 343.26 294.926 343.26 295.05C343.26 295.174 343.26 295.277 343.26 295.36C343.342 297.055 343.714 298.646 344.376 300.134C345.037 301.581 345.988 302.759 347.228 303.668C348.468 304.577 349.956 305.032 351.692 305.032C353.18 305.032 354.42 304.805 355.412 304.35C356.404 303.895 357.21 303.399 357.83 302.862C358.45 302.283 358.863 301.849 359.07 301.56C359.442 301.023 359.731 300.713 359.938 300.63C360.144 300.506 360.475 300.444 360.93 300.444H363.906C364.319 300.444 364.65 300.568 364.898 300.816C365.187 301.023 365.311 301.333 365.27 301.746C365.228 302.366 364.898 303.131 364.278 304.04C363.658 304.908 362.769 305.776 361.612 306.644C360.454 307.512 359.049 308.235 357.396 308.814C355.742 309.351 353.841 309.62 351.692 309.62ZM343.26 290.524H360.248V290.338C360.248 288.478 359.896 286.825 359.194 285.378C358.532 283.931 357.561 282.795 356.28 281.968C354.998 281.1 353.469 280.666 351.692 280.666C349.914 280.666 348.385 281.1 347.104 281.968C345.864 282.795 344.913 283.931 344.252 285.378C343.59 286.825 343.26 288.478 343.26 290.338V290.524ZM386.757 309.62C383.616 309.62 380.991 309.021 378.883 307.822C376.775 306.623 375.163 304.97 374.047 302.862C372.931 300.713 372.311 298.274 372.187 295.546C372.146 294.843 372.125 293.955 372.125 292.88C372.125 291.764 372.146 290.875 372.187 290.214C372.311 287.445 372.931 285.006 374.047 282.898C375.204 280.79 376.837 279.137 378.945 277.938C381.053 276.739 383.657 276.14 386.757 276.14C389.857 276.14 392.461 276.739 394.569 277.938C396.677 279.137 398.289 280.79 399.405 282.898C400.562 285.006 401.203 287.445 401.327 290.214C401.368 290.875 401.389 291.764 401.389 292.88C401.389 293.955 401.368 294.843 401.327 295.546C401.203 298.274 400.583 300.713 399.467 302.862C398.351 304.97 396.739 306.623 394.631 307.822C392.523 309.021 389.898 309.62 386.757 309.62ZM386.757 304.846C389.32 304.846 391.366 304.04 392.895 302.428C394.424 300.775 395.251 298.377 395.375 295.236C395.416 294.616 395.437 293.831 395.437 292.88C395.437 291.929 395.416 291.144 395.375 290.524C395.251 287.383 394.424 285.006 392.895 283.394C391.366 281.741 389.32 280.914 386.757 280.914C384.194 280.914 382.128 281.741 380.557 283.394C379.028 285.006 378.222 287.383 378.139 290.524C378.098 291.144 378.077 291.929 378.077 292.88C378.077 293.831 378.098 294.616 378.139 295.236C378.222 298.377 379.028 300.775 380.557 302.428C382.128 304.04 384.194 304.846 386.757 304.846ZM410.578 309C410.165 309 409.814 308.876 409.524 308.628C409.276 308.339 409.152 307.987 409.152 307.574V278.186C409.152 277.773 409.276 277.442 409.524 277.194C409.814 276.905 410.165 276.76 410.578 276.76H413.492C413.906 276.76 414.236 276.905 414.484 277.194C414.774 277.442 414.918 277.773 414.918 278.186V280.914C415.993 279.509 417.336 278.372 418.948 277.504C420.602 276.595 422.71 276.14 425.272 276.14C427.959 276.14 430.232 276.739 432.092 277.938C433.994 279.095 435.42 280.728 436.37 282.836C437.321 284.903 437.796 287.321 437.796 290.09V307.574C437.796 307.987 437.672 308.339 437.424 308.628C437.176 308.876 436.846 309 436.432 309H433.332C432.919 309 432.568 308.876 432.278 308.628C432.03 308.339 431.906 307.987 431.906 307.574V290.4C431.906 287.507 431.204 285.254 429.798 283.642C428.393 281.989 426.326 281.162 423.598 281.162C421.036 281.162 418.969 281.989 417.398 283.642C415.869 285.254 415.104 287.507 415.104 290.4V307.574C415.104 307.987 414.96 308.339 414.67 308.628C414.422 308.876 414.092 309 413.678 309H410.578ZM455.742 309.62C453.675 309.62 451.795 309.207 450.1 308.38C448.405 307.553 447.041 306.437 446.008 305.032C444.975 303.627 444.458 302.035 444.458 300.258C444.458 297.406 445.615 295.133 447.93 293.438C450.245 291.743 453.262 290.627 456.982 290.09L466.22 288.788V286.99C466.22 285.006 465.641 283.456 464.484 282.34C463.368 281.224 461.529 280.666 458.966 280.666C457.106 280.666 455.597 281.038 454.44 281.782C453.324 282.526 452.539 283.477 452.084 284.634C451.836 285.254 451.402 285.564 450.782 285.564H447.992C447.537 285.564 447.186 285.44 446.938 285.192C446.731 284.903 446.628 284.572 446.628 284.2C446.628 283.58 446.855 282.815 447.31 281.906C447.806 280.997 448.55 280.108 449.542 279.24C450.534 278.372 451.795 277.649 453.324 277.07C454.895 276.45 456.796 276.14 459.028 276.14C461.508 276.14 463.595 276.471 465.29 277.132C466.985 277.752 468.307 278.599 469.258 279.674C470.25 280.749 470.953 281.968 471.366 283.332C471.821 284.696 472.048 286.081 472.048 287.486V307.574C472.048 307.987 471.903 308.339 471.614 308.628C471.366 308.876 471.035 309 470.622 309H467.77C467.315 309 466.964 308.876 466.716 308.628C466.468 308.339 466.344 307.987 466.344 307.574V304.908C465.807 305.652 465.083 306.396 464.174 307.14C463.265 307.843 462.128 308.442 460.764 308.938C459.4 309.393 457.726 309.62 455.742 309.62ZM457.044 304.97C458.739 304.97 460.289 304.619 461.694 303.916C463.099 303.172 464.195 302.035 464.98 300.506C465.807 298.977 466.22 297.055 466.22 294.74V293.004L459.028 294.058C456.093 294.471 453.882 295.174 452.394 296.166C450.906 297.117 450.162 298.336 450.162 299.824C450.162 300.981 450.493 301.953 451.154 302.738C451.857 303.482 452.725 304.04 453.758 304.412C454.833 304.784 455.928 304.97 457.044 304.97ZM482.387 309C481.974 309 481.622 308.876 481.333 308.628C481.085 308.339 480.961 307.987 480.961 307.574V278.248C480.961 277.835 481.085 277.483 481.333 277.194C481.622 276.905 481.974 276.76 482.387 276.76H485.239C485.652 276.76 486.004 276.905 486.293 277.194C486.582 277.483 486.727 277.835 486.727 278.248V280.976C487.554 279.571 488.69 278.517 490.137 277.814C491.584 277.111 493.32 276.76 495.345 276.76H497.825C498.238 276.76 498.569 276.905 498.817 277.194C499.065 277.442 499.189 277.773 499.189 278.186V280.728C499.189 281.141 499.065 281.472 498.817 281.72C498.569 281.968 498.238 282.092 497.825 282.092H494.105C491.873 282.092 490.116 282.753 488.835 284.076C487.554 285.357 486.913 287.114 486.913 289.346V307.574C486.913 307.987 486.768 308.339 486.479 308.628C486.19 308.876 485.838 309 485.425 309H482.387ZM515.628 309.62C513.354 309.62 511.391 309.227 509.738 308.442C508.084 307.615 506.72 306.52 505.646 305.156C504.612 303.751 503.827 302.159 503.29 300.382C502.794 298.605 502.504 296.724 502.422 294.74C502.38 294.079 502.36 293.459 502.36 292.88C502.36 292.301 502.38 291.681 502.422 291.02C502.504 289.077 502.794 287.217 503.29 285.44C503.827 283.663 504.612 282.071 505.646 280.666C506.72 279.261 508.084 278.165 509.738 277.38C511.391 276.553 513.354 276.14 515.628 276.14C518.066 276.14 520.092 276.574 521.704 277.442C523.316 278.31 524.638 279.385 525.672 280.666V266.406C525.672 265.993 525.796 265.662 526.044 265.414C526.333 265.125 526.684 264.98 527.098 264.98H530.074C530.487 264.98 530.818 265.125 531.066 265.414C531.355 265.662 531.5 265.993 531.5 266.406V307.574C531.5 307.987 531.355 308.339 531.066 308.628C530.818 308.876 530.487 309 530.074 309H527.284C526.829 309 526.478 308.876 526.23 308.628C525.982 308.339 525.858 307.987 525.858 307.574V304.97C524.824 306.293 523.481 307.409 521.828 308.318C520.174 309.186 518.108 309.62 515.628 309.62ZM516.93 304.598C518.996 304.598 520.65 304.123 521.89 303.172C523.13 302.221 524.06 301.023 524.68 299.576C525.3 298.088 525.63 296.579 525.672 295.05C525.713 294.389 525.734 293.603 525.734 292.694C525.734 291.743 525.713 290.937 525.672 290.276C525.63 288.829 525.279 287.403 524.618 285.998C523.998 284.593 523.047 283.435 521.766 282.526C520.526 281.617 518.914 281.162 516.93 281.162C514.822 281.162 513.148 281.637 511.908 282.588C510.668 283.497 509.779 284.717 509.242 286.246C508.704 287.734 508.394 289.346 508.312 291.082C508.27 292.281 508.27 293.479 508.312 294.678C508.394 296.414 508.704 298.047 509.242 299.576C509.779 301.064 510.668 302.283 511.908 303.234C513.148 304.143 514.822 304.598 516.93 304.598ZM553.927 309.62C550.785 309.62 548.161 309.021 546.053 307.822C543.945 306.623 542.333 304.97 541.217 302.862C540.101 300.713 539.481 298.274 539.357 295.546C539.315 294.843 539.295 293.955 539.295 292.88C539.295 291.764 539.315 290.875 539.357 290.214C539.481 287.445 540.101 285.006 541.217 282.898C542.374 280.79 544.007 279.137 546.115 277.938C548.223 276.739 550.827 276.14 553.927 276.14C557.027 276.14 559.631 276.739 561.739 277.938C563.847 279.137 565.459 280.79 566.575 282.898C567.732 285.006 568.373 287.445 568.497 290.214C568.538 290.875 568.559 291.764 568.559 292.88C568.559 293.955 568.538 294.843 568.497 295.546C568.373 298.274 567.753 300.713 566.637 302.862C565.521 304.97 563.909 306.623 561.801 307.822C559.693 309.021 557.068 309.62 553.927 309.62ZM553.927 304.846C556.489 304.846 558.535 304.04 560.065 302.428C561.594 300.775 562.421 298.377 562.545 295.236C562.586 294.616 562.607 293.831 562.607 292.88C562.607 291.929 562.586 291.144 562.545 290.524C562.421 287.383 561.594 285.006 560.065 283.394C558.535 281.741 556.489 280.914 553.927 280.914C551.364 280.914 549.297 281.741 547.727 283.394C546.197 285.006 545.391 287.383 545.309 290.524C545.267 291.144 545.247 291.929 545.247 292.88C545.247 293.831 545.267 294.616 545.309 295.236C545.391 298.377 546.197 300.775 547.727 302.428C549.297 304.04 551.364 304.846 553.927 304.846ZM587.777 309C587.446 309 587.157 308.876 586.909 308.628C586.661 308.38 586.537 308.091 586.537 307.76C586.537 307.553 586.558 307.326 586.599 307.078L601.975 266.964C602.14 266.551 602.368 266.22 602.657 265.972C602.946 265.724 603.38 265.6 603.959 265.6H608.175C608.712 265.6 609.126 265.724 609.415 265.972C609.746 266.22 609.994 266.551 610.159 266.964L625.473 307.078C625.556 307.326 625.597 307.553 625.597 307.76C625.597 308.091 625.473 308.38 625.225 308.628C624.977 308.876 624.688 309 624.357 309H621.195C620.699 309 620.327 308.876 620.079 308.628C619.872 308.38 619.728 308.153 619.645 307.946L616.235 299.142H595.899L592.489 307.946C592.448 308.153 592.303 308.38 592.055 308.628C591.807 308.876 591.435 309 590.939 309H587.777ZM597.697 293.81H614.437L606.067 271.8L597.697 293.81ZM632.412 309C631.999 309 631.647 308.876 631.358 308.628C631.11 308.339 630.986 307.987 630.986 307.574V303.11C630.986 302.697 631.11 302.366 631.358 302.118C631.647 301.829 631.999 301.684 632.412 301.684H636.876C637.289 301.684 637.62 301.829 637.868 302.118C638.157 302.366 638.302 302.697 638.302 303.11V307.574C638.302 307.987 638.157 308.339 637.868 308.628C637.62 308.876 637.289 309 636.876 309H632.412ZM664.47 309C664.016 309 663.664 308.876 663.416 308.628C663.168 308.339 663.044 307.987 663.044 307.574V267.088C663.044 266.633 663.168 266.282 663.416 266.034C663.664 265.745 664.016 265.6 664.47 265.6H680.218C683.277 265.6 685.922 266.096 688.154 267.088C690.428 268.08 692.184 269.568 693.424 271.552C694.664 273.495 695.284 275.933 695.284 278.868C695.284 281.803 694.664 284.241 693.424 286.184C692.184 288.127 690.428 289.594 688.154 290.586C685.922 291.578 683.277 292.074 680.218 292.074H669.244V307.574C669.244 307.987 669.1 308.339 668.81 308.628C668.562 308.876 668.211 309 667.756 309H664.47ZM669.182 286.866H679.908C682.967 286.866 685.261 286.184 686.79 284.82C688.32 283.456 689.084 281.472 689.084 278.868C689.084 276.305 688.34 274.321 686.852 272.916C685.364 271.511 683.05 270.808 679.908 270.808H669.182V286.866ZM703.625 309C703.212 309 702.861 308.876 702.571 308.628C702.323 308.339 702.199 307.987 702.199 307.574V278.186C702.199 277.773 702.323 277.442 702.571 277.194C702.861 276.905 703.212 276.76 703.625 276.76H706.601C707.015 276.76 707.345 276.905 707.593 277.194C707.841 277.442 707.965 277.773 707.965 278.186V307.574C707.965 307.987 707.841 308.339 707.593 308.628C707.345 308.876 707.015 309 706.601 309H703.625ZM703.129 270.746C702.716 270.746 702.365 270.622 702.075 270.374C701.827 270.085 701.703 269.733 701.703 269.32V265.972C701.703 265.559 701.827 265.228 702.075 264.98C702.365 264.691 702.716 264.546 703.129 264.546H707.035C707.449 264.546 707.779 264.691 708.027 264.98C708.317 265.228 708.461 265.559 708.461 265.972V269.32C708.461 269.733 708.317 270.085 708.027 270.374C707.779 270.622 707.449 270.746 707.035 270.746H703.129ZM719.246 309C718.833 309 718.482 308.876 718.192 308.628C717.944 308.339 717.82 307.987 717.82 307.574V278.186C717.82 277.773 717.944 277.442 718.192 277.194C718.482 276.905 718.833 276.76 719.246 276.76H722.16C722.574 276.76 722.904 276.905 723.152 277.194C723.442 277.442 723.586 277.773 723.586 278.186V280.914C724.661 279.509 726.004 278.372 727.616 277.504C729.27 276.595 731.378 276.14 733.94 276.14C736.627 276.14 738.9 276.739 740.76 277.938C742.662 279.095 744.088 280.728 745.038 282.836C745.989 284.903 746.464 287.321 746.464 290.09V307.574C746.464 307.987 746.34 308.339 746.092 308.628C745.844 308.876 745.514 309 745.1 309H742C741.587 309 741.236 308.876 740.946 308.628C740.698 308.339 740.574 307.987 740.574 307.574V290.4C740.574 287.507 739.872 285.254 738.466 283.642C737.061 281.989 734.994 281.162 732.266 281.162C729.704 281.162 727.637 281.989 726.066 283.642C724.537 285.254 723.772 287.507 723.772 290.4V307.574C723.772 307.987 723.628 308.339 723.338 308.628C723.09 308.876 722.76 309 722.346 309H719.246ZM756.908 309C756.495 309 756.143 308.876 755.854 308.628C755.606 308.339 755.482 307.987 755.482 307.574V266.406C755.482 265.993 755.606 265.662 755.854 265.414C756.143 265.125 756.495 264.98 756.908 264.98H760.008C760.463 264.98 760.814 265.125 761.062 265.414C761.31 265.662 761.434 265.993 761.434 266.406V280.852C762.55 279.447 763.914 278.31 765.526 277.442C767.138 276.574 769.184 276.14 771.664 276.14C774.351 276.14 776.624 276.739 778.484 277.938C780.385 279.095 781.811 280.728 782.762 282.836C783.754 284.903 784.25 287.321 784.25 290.09V307.574C784.25 307.987 784.126 308.339 783.878 308.628C783.63 308.876 783.279 309 782.824 309H779.724C779.311 309 778.959 308.876 778.67 308.628C778.422 308.339 778.298 307.987 778.298 307.574V290.4C778.298 287.507 777.595 285.254 776.19 283.642C774.785 281.989 772.718 281.162 769.99 281.162C767.427 281.162 765.361 281.989 763.79 283.642C762.219 285.254 761.434 287.507 761.434 290.4V307.574C761.434 307.987 761.31 308.339 761.062 308.628C760.814 308.876 760.463 309 760.008 309H756.908ZM806.035 309.62C801.778 309.62 798.389 308.318 795.867 305.714C793.346 303.069 791.961 299.473 791.713 294.926C791.672 294.389 791.651 293.707 791.651 292.88C791.651 292.012 791.672 291.309 791.713 290.772C791.879 287.837 792.561 285.275 793.759 283.084C794.958 280.852 796.591 279.137 798.657 277.938C800.765 276.739 803.225 276.14 806.035 276.14C809.177 276.14 811.801 276.801 813.909 278.124C816.059 279.447 817.691 281.327 818.807 283.766C819.923 286.205 820.481 289.057 820.481 292.322V293.376C820.481 293.831 820.337 294.182 820.047 294.43C819.799 294.678 819.469 294.802 819.055 294.802H797.603C797.603 294.843 797.603 294.926 797.603 295.05C797.603 295.174 797.603 295.277 797.603 295.36C797.686 297.055 798.058 298.646 798.719 300.134C799.381 301.581 800.331 302.759 801.571 303.668C802.811 304.577 804.299 305.032 806.035 305.032C807.523 305.032 808.763 304.805 809.755 304.35C810.747 303.895 811.553 303.399 812.173 302.862C812.793 302.283 813.207 301.849 813.413 301.56C813.785 301.023 814.075 300.713 814.281 300.63C814.488 300.506 814.819 300.444 815.273 300.444H818.249C818.663 300.444 818.993 300.568 819.241 300.816C819.531 301.023 819.655 301.333 819.613 301.746C819.572 302.366 819.241 303.131 818.621 304.04C818.001 304.908 817.113 305.776 815.955 306.644C814.798 307.512 813.393 308.235 811.739 308.814C810.086 309.351 808.185 309.62 806.035 309.62ZM797.603 290.524H814.591V290.338C814.591 288.478 814.24 286.825 813.537 285.378C812.876 283.931 811.905 282.795 810.623 281.968C809.342 281.1 807.813 280.666 806.035 280.666C804.258 280.666 802.729 281.1 801.447 281.968C800.207 282.795 799.257 283.931 798.595 285.378C797.934 286.825 797.603 288.478 797.603 290.338V290.524ZM829.321 309C828.907 309 828.556 308.876 828.267 308.628C828.019 308.339 827.895 307.987 827.895 307.574V278.186C827.895 277.773 828.019 277.442 828.267 277.194C828.556 276.905 828.907 276.76 829.321 276.76H832.297C832.71 276.76 833.041 276.905 833.289 277.194C833.537 277.442 833.661 277.773 833.661 278.186V307.574C833.661 307.987 833.537 308.339 833.289 308.628C833.041 308.876 832.71 309 832.297 309H829.321ZM828.825 270.746C828.411 270.746 828.06 270.622 827.771 270.374C827.523 270.085 827.399 269.733 827.399 269.32V265.972C827.399 265.559 827.523 265.228 827.771 264.98C828.06 264.691 828.411 264.546 828.825 264.546H832.731C833.144 264.546 833.475 264.691 833.723 264.98C834.012 265.228 834.157 265.559 834.157 265.972V269.32C834.157 269.733 834.012 270.085 833.723 270.374C833.475 270.622 833.144 270.746 832.731 270.746H828.825ZM844.942 309C844.528 309 844.177 308.876 843.888 308.628C843.64 308.339 843.516 307.987 843.516 307.574V278.248C843.516 277.835 843.64 277.483 843.888 277.194C844.177 276.905 844.528 276.76 844.942 276.76H847.794C848.207 276.76 848.558 276.905 848.848 277.194C849.137 277.483 849.282 277.835 849.282 278.248V280.976C850.108 279.571 851.245 278.517 852.692 277.814C854.138 277.111 855.874 276.76 857.9 276.76H860.38C860.793 276.76 861.124 276.905 861.372 277.194C861.62 277.442 861.744 277.773 861.744 278.186V280.728C861.744 281.141 861.62 281.472 861.372 281.72C861.124 281.968 860.793 282.092 860.38 282.092H856.66C854.428 282.092 852.671 282.753 851.39 284.076C850.108 285.357 849.468 287.114 849.468 289.346V307.574C849.468 307.987 849.323 308.339 849.034 308.628C848.744 308.876 848.393 309 847.98 309H844.942ZM879.669 309.62C876.528 309.62 873.903 309.021 871.795 307.822C869.687 306.623 868.075 304.97 866.959 302.862C865.843 300.713 865.223 298.274 865.099 295.546C865.058 294.843 865.037 293.955 865.037 292.88C865.037 291.764 865.058 290.875 865.099 290.214C865.223 287.445 865.843 285.006 866.959 282.898C868.116 280.79 869.749 279.137 871.857 277.938C873.965 276.739 876.569 276.14 879.669 276.14C882.769 276.14 885.373 276.739 887.481 277.938C889.589 279.137 891.201 280.79 892.317 282.898C893.474 285.006 894.115 287.445 894.239 290.214C894.28 290.875 894.301 291.764 894.301 292.88C894.301 293.955 894.28 294.843 894.239 295.546C894.115 298.274 893.495 300.713 892.379 302.862C891.263 304.97 889.651 306.623 887.543 307.822C885.435 309.021 882.81 309.62 879.669 309.62ZM879.669 304.846C882.232 304.846 884.278 304.04 885.807 302.428C887.336 300.775 888.163 298.377 888.287 295.236C888.328 294.616 888.349 293.831 888.349 292.88C888.349 291.929 888.328 291.144 888.287 290.524C888.163 287.383 887.336 285.006 885.807 283.394C884.278 281.741 882.232 280.914 879.669 280.914C877.106 280.914 875.04 281.741 873.469 283.394C871.94 285.006 871.134 287.383 871.051 290.524C871.01 291.144 870.989 291.929 870.989 292.88C870.989 293.831 871.01 294.616 871.051 295.236C871.134 298.377 871.94 300.775 873.469 302.428C875.04 304.04 877.106 304.846 879.669 304.846Z" fill="#1971C2"/>
<path d="M419.85 352C419.63 352 419.45 351.93 419.31 351.79C419.17 351.65 419.1 351.47 419.1 351.25V331.75C419.1 331.53 419.17 331.35 419.31 331.21C419.45 331.07 419.63 331 419.85 331H433.62C433.84 331 434.02 331.07 434.16 331.21C434.32 331.35 434.4 331.53 434.4 331.75V334.78C434.4 335 434.32 335.18 434.16 335.32C434.02 335.46 433.84 335.53 433.62 335.53H424.38V339.94H433.02C433.24 339.94 433.42 340.02 433.56 340.18C433.72 340.32 433.8 340.5 433.8 340.72V343.72C433.8 343.92 433.72 344.1 433.56 344.26C433.42 344.4 433.24 344.47 433.02 344.47H424.38V351.25C424.38 351.47 424.31 351.65 424.17 351.79C424.03 351.93 423.85 352 423.63 352H419.85ZM438.366 352C438.146 352 437.966 351.93 437.826 351.79C437.686 351.65 437.616 351.47 437.616 351.25V331.75C437.616 331.53 437.686 331.35 437.826 331.21C437.966 331.07 438.146 331 438.366 331H446.526C449.106 331 451.136 331.6 452.616 332.8C454.116 333.98 454.866 335.66 454.866 337.84C454.866 339.26 454.516 340.46 453.816 341.44C453.136 342.42 452.236 343.16 451.116 343.66L455.256 351.04C455.316 351.16 455.346 351.27 455.346 351.37C455.346 351.53 455.276 351.68 455.136 351.82C455.016 351.94 454.866 352 454.686 352H450.726C450.346 352 450.066 351.91 449.886 351.73C449.706 351.53 449.576 351.35 449.496 351.19L446.076 344.59H442.986V351.25C442.986 351.47 442.916 351.65 442.776 351.79C442.636 351.93 442.456 352 442.236 352H438.366ZM442.986 340.36H446.466C447.406 340.36 448.106 340.13 448.566 339.67C449.046 339.21 449.286 338.58 449.286 337.78C449.286 337 449.056 336.37 448.596 335.89C448.156 335.41 447.446 335.17 446.466 335.17H442.986V340.36ZM466.85 352.3C465.01 352.3 463.41 352 462.05 351.4C460.69 350.8 459.63 349.9 458.87 348.7C458.11 347.48 457.69 345.96 457.61 344.14C457.59 343.28 457.58 342.42 457.58 341.56C457.58 340.7 457.59 339.83 457.61 338.95C457.69 337.15 458.11 335.64 458.87 334.42C459.65 333.18 460.72 332.25 462.08 331.63C463.44 331.01 465.03 330.7 466.85 330.7C468.65 330.7 470.23 331.01 471.59 331.63C472.97 332.25 474.05 333.18 474.83 334.42C475.61 335.64 476.03 337.15 476.09 338.95C476.13 339.83 476.15 340.7 476.15 341.56C476.15 342.42 476.13 343.28 476.09 344.14C476.01 345.96 475.59 347.48 474.83 348.7C474.07 349.9 473.01 350.8 471.65 351.4C470.29 352 468.69 352.3 466.85 352.3ZM466.85 347.98C467.91 347.98 468.77 347.66 469.43 347.02C470.11 346.38 470.47 345.36 470.51 343.96C470.55 343.08 470.57 342.25 470.57 341.47C470.57 340.69 470.55 339.88 470.51 339.04C470.47 338.1 470.29 337.34 469.97 336.76C469.67 336.16 469.25 335.72 468.71 335.44C468.17 335.16 467.55 335.02 466.85 335.02C466.17 335.02 465.56 335.16 465.02 335.44C464.48 335.72 464.05 336.16 463.73 336.76C463.41 337.34 463.23 338.1 463.19 339.04C463.17 339.88 463.16 340.69 463.16 341.47C463.16 342.25 463.17 343.08 463.19 343.96C463.25 345.36 463.61 346.38 464.27 347.02C464.93 347.66 465.79 347.98 466.85 347.98ZM480.377 352C480.157 352 479.977 351.93 479.837 351.79C479.697 351.65 479.627 351.47 479.627 351.25V331.75C479.627 331.53 479.697 331.35 479.837 331.21C479.977 331.07 480.157 331 480.377 331H483.557C483.897 331 484.137 331.08 484.277 331.24C484.437 331.38 484.537 331.49 484.577 331.57L491.897 343.12V331.75C491.897 331.53 491.967 331.35 492.107 331.21C492.247 331.07 492.427 331 492.647 331H496.247C496.467 331 496.647 331.07 496.787 331.21C496.927 331.35 496.997 331.53 496.997 331.75V351.25C496.997 351.45 496.927 351.63 496.787 351.79C496.647 351.93 496.467 352 496.247 352H493.037C492.717 352 492.477 351.92 492.317 351.76C492.177 351.6 492.087 351.49 492.047 351.43L484.727 340.33V351.25C484.727 351.47 484.657 351.65 484.517 351.79C484.377 351.93 484.197 352 483.977 352H480.377ZM506.56 352C506.34 352 506.16 351.93 506.02 351.79C505.88 351.65 505.81 351.47 505.81 351.25V335.71H500.47C500.25 335.71 500.07 335.64 499.93 335.5C499.79 335.34 499.72 335.16 499.72 334.96V331.75C499.72 331.53 499.79 331.35 499.93 331.21C500.07 331.07 500.25 331 500.47 331H516.61C516.83 331 517.01 331.07 517.15 331.21C517.29 331.35 517.36 331.53 517.36 331.75V334.96C517.36 335.16 517.29 335.34 517.15 335.5C517.01 335.64 516.83 335.71 516.61 335.71H511.27V351.25C511.27 351.47 511.2 351.65 511.06 351.79C510.92 351.93 510.74 352 510.52 352H506.56ZM520.836 352C520.616 352 520.436 351.93 520.296 351.79C520.156 351.65 520.086 351.47 520.086 351.25V331.75C520.086 331.53 520.156 331.35 520.296 331.21C520.436 331.07 520.616 331 520.836 331H534.846C535.066 331 535.246 331.07 535.386 331.21C535.526 331.35 535.596 331.53 535.596 331.75V334.57C535.596 334.79 535.526 334.97 535.386 335.11C535.246 335.25 535.066 335.32 534.846 335.32H525.276V339.37H534.186C534.406 339.37 534.586 339.45 534.726 339.61C534.866 339.75 534.936 339.93 534.936 340.15V342.76C534.936 342.96 534.866 343.14 534.726 343.3C534.586 343.44 534.406 343.51 534.186 343.51H525.276V347.68H535.086C535.306 347.68 535.486 347.75 535.626 347.89C535.766 348.03 535.836 348.21 535.836 348.43V351.25C535.836 351.47 535.766 351.65 535.626 351.79C535.486 351.93 535.306 352 535.086 352H520.836ZM539.996 352C539.776 352 539.596 351.93 539.456 351.79C539.316 351.65 539.246 351.47 539.246 351.25V331.75C539.246 331.53 539.316 331.35 539.456 331.21C539.596 331.07 539.776 331 539.996 331H543.176C543.516 331 543.756 331.08 543.896 331.24C544.056 331.38 544.156 331.49 544.196 331.57L551.516 343.12V331.75C551.516 331.53 551.586 331.35 551.726 331.21C551.866 331.07 552.046 331 552.266 331H555.866C556.086 331 556.266 331.07 556.406 331.21C556.546 331.35 556.616 331.53 556.616 331.75V351.25C556.616 351.45 556.546 351.63 556.406 351.79C556.266 351.93 556.086 352 555.866 352H552.656C552.336 352 552.096 351.92 551.936 351.76C551.796 351.6 551.706 351.49 551.666 351.43L544.346 340.33V351.25C544.346 351.47 544.276 351.65 544.136 351.79C543.996 351.93 543.816 352 543.596 352H539.996ZM561.559 352C561.339 352 561.159 351.93 561.019 351.79C560.879 351.65 560.809 351.47 560.809 351.25V331.75C560.809 331.53 560.879 331.35 561.019 331.21C561.159 331.07 561.339 331 561.559 331H569.359C571.319 331 572.989 331.32 574.369 331.96C575.749 332.58 576.809 333.5 577.549 334.72C578.289 335.92 578.689 337.41 578.749 339.19C578.769 340.07 578.779 340.84 578.779 341.5C578.779 342.16 578.769 342.92 578.749 343.78C578.669 345.64 578.269 347.18 577.549 348.4C576.849 349.62 575.819 350.53 574.459 351.13C573.119 351.71 571.469 352 569.509 352H561.559ZM566.179 347.68H569.359C570.219 347.68 570.929 347.55 571.489 347.29C572.069 347.01 572.499 346.58 572.779 346C573.079 345.42 573.239 344.66 573.259 343.72C573.299 343.14 573.319 342.62 573.319 342.16C573.339 341.7 573.339 341.24 573.319 340.78C573.319 340.32 573.299 339.81 573.259 339.25C573.219 337.89 572.859 336.9 572.179 336.28C571.519 335.64 570.529 335.32 569.209 335.32H566.179V347.68ZM589.42 352C589.2 352 589.02 351.93 588.88 351.79C588.74 351.65 588.67 351.47 588.67 351.25V331.75C588.67 331.53 588.74 331.35 588.88 331.21C589.02 331.07 589.2 331 589.42 331H597.22C599.18 331 600.85 331.32 602.23 331.96C603.61 332.58 604.67 333.5 605.41 334.72C606.15 335.92 606.55 337.41 606.61 339.19C606.63 340.07 606.64 340.84 606.64 341.5C606.64 342.16 606.63 342.92 606.61 343.78C606.53 345.64 606.13 347.18 605.41 348.4C604.71 349.62 603.68 350.53 602.32 351.13C600.98 351.71 599.33 352 597.37 352H589.42ZM594.04 347.68H597.22C598.08 347.68 598.79 347.55 599.35 347.29C599.93 347.01 600.36 346.58 600.64 346C600.94 345.42 601.1 344.66 601.12 343.72C601.16 343.14 601.18 342.62 601.18 342.16C601.2 341.7 601.2 341.24 601.18 340.78C601.18 340.32 601.16 339.81 601.12 339.25C601.08 337.89 600.72 336.9 600.04 336.28C599.38 335.64 598.39 335.32 597.07 335.32H594.04V347.68ZM610.895 352C610.675 352 610.495 351.93 610.355 351.79C610.215 351.65 610.145 351.47 610.145 351.25V331.75C610.145 331.53 610.215 331.35 610.355 331.21C610.495 331.07 610.675 331 610.895 331H624.905C625.125 331 625.305 331.07 625.445 331.21C625.585 331.35 625.655 331.53 625.655 331.75V334.57C625.655 334.79 625.585 334.97 625.445 335.11C625.305 335.25 625.125 335.32 624.905 335.32H615.335V339.37H624.245C624.465 339.37 624.645 339.45 624.785 339.61C624.925 339.75 624.995 339.93 624.995 340.15V342.76C624.995 342.96 624.925 343.14 624.785 343.3C624.645 343.44 624.465 343.51 624.245 343.51H615.335V347.68H625.145C625.365 347.68 625.545 347.75 625.685 347.89C625.825 348.03 625.895 348.21 625.895 348.43V351.25C625.895 351.47 625.825 351.65 625.685 351.79C625.545 351.93 625.365 352 625.145 352H610.895ZM635.188 352C634.848 352 634.578 351.91 634.378 351.73C634.178 351.55 634.038 351.34 633.958 351.1L627.838 331.9C627.798 331.8 627.778 331.71 627.778 331.63C627.778 331.47 627.838 331.33 627.958 331.21C628.098 331.07 628.258 331 628.438 331H632.158C632.478 331 632.728 331.09 632.908 331.27C633.088 331.45 633.198 331.62 633.238 331.78L637.468 345.64L641.728 331.78C641.788 331.62 641.898 331.45 642.058 331.27C642.238 331.09 642.488 331 642.808 331H646.528C646.708 331 646.858 331.07 646.978 331.21C647.118 331.33 647.188 331.47 647.188 331.63C647.188 331.71 647.168 331.8 647.128 331.9L641.008 351.1C640.928 351.34 640.788 351.55 640.588 351.73C640.408 351.91 640.138 352 639.778 352H635.188ZM650.739 352C650.519 352 650.339 351.93 650.199 351.79C650.059 351.65 649.989 351.47 649.989 351.25V331.75C649.989 331.53 650.059 331.35 650.199 331.21C650.339 331.07 650.519 331 650.739 331H664.749C664.969 331 665.149 331.07 665.289 331.21C665.429 331.35 665.499 331.53 665.499 331.75V334.57C665.499 334.79 665.429 334.97 665.289 335.11C665.149 335.25 664.969 335.32 664.749 335.32H655.179V339.37H664.089C664.309 339.37 664.489 339.45 664.629 339.61C664.769 339.75 664.839 339.93 664.839 340.15V342.76C664.839 342.96 664.769 343.14 664.629 343.3C664.489 343.44 664.309 343.51 664.089 343.51H655.179V347.68H664.989C665.209 347.68 665.389 347.75 665.529 347.89C665.669 348.03 665.739 348.21 665.739 348.43V351.25C665.739 351.47 665.669 351.65 665.529 351.79C665.389 351.93 665.209 352 664.989 352H650.739ZM669.899 352C669.679 352 669.499 351.93 669.359 351.79C669.219 351.65 669.149 351.47 669.149 351.25V331.75C669.149 331.53 669.219 331.35 669.359 331.21C669.499 331.07 669.679 331 669.899 331H673.859C674.059 331 674.229 331.07 674.369 331.21C674.529 331.35 674.609 331.53 674.609 331.75V347.47H683.669C683.889 347.47 684.069 347.55 684.209 347.71C684.369 347.85 684.449 348.03 684.449 348.25V351.25C684.449 351.47 684.369 351.65 684.209 351.79C684.069 351.93 683.889 352 683.669 352H669.899ZM695.395 352.3C693.555 352.3 691.955 352 690.595 351.4C689.235 350.8 688.175 349.9 687.415 348.7C686.655 347.48 686.235 345.96 686.155 344.14C686.135 343.28 686.125 342.42 686.125 341.56C686.125 340.7 686.135 339.83 686.155 338.95C686.235 337.15 686.655 335.64 687.415 334.42C688.195 333.18 689.265 332.25 690.625 331.63C691.985 331.01 693.575 330.7 695.395 330.7C697.195 330.7 698.775 331.01 700.135 331.63C701.515 332.25 702.595 333.18 703.375 334.42C704.155 335.64 704.575 337.15 704.635 338.95C704.675 339.83 704.695 340.7 704.695 341.56C704.695 342.42 704.675 343.28 704.635 344.14C704.555 345.96 704.135 347.48 703.375 348.7C702.615 349.9 701.555 350.8 700.195 351.4C698.835 352 697.235 352.3 695.395 352.3ZM695.395 347.98C696.455 347.98 697.315 347.66 697.975 347.02C698.655 346.38 699.015 345.36 699.055 343.96C699.095 343.08 699.115 342.25 699.115 341.47C699.115 340.69 699.095 339.88 699.055 339.04C699.015 338.1 698.835 337.34 698.515 336.76C698.215 336.16 697.795 335.72 697.255 335.44C696.715 335.16 696.095 335.02 695.395 335.02C694.715 335.02 694.105 335.16 693.565 335.44C693.025 335.72 692.595 336.16 692.275 336.76C691.955 337.34 691.775 338.1 691.735 339.04C691.715 339.88 691.705 340.69 691.705 341.47C691.705 342.25 691.715 343.08 691.735 343.96C691.795 345.36 692.155 346.38 692.815 347.02C693.475 347.66 694.335 347.98 695.395 347.98ZM708.922 352C708.702 352 708.522 351.93 708.382 351.79C708.242 351.65 708.172 351.47 708.172 351.25V331.75C708.172 331.53 708.242 331.35 708.382 331.21C708.522 331.07 708.702 331 708.922 331H717.322C718.982 331 720.422 331.26 721.642 331.78C722.882 332.28 723.842 333.04 724.522 334.06C725.222 335.08 725.572 336.37 725.572 337.93C725.572 339.47 725.222 340.74 724.522 341.74C723.842 342.74 722.882 343.48 721.642 343.96C720.422 344.44 718.982 344.68 717.322 344.68H713.752V351.25C713.752 351.47 713.672 351.65 713.512 351.79C713.372 351.93 713.192 352 712.972 352H708.922ZM713.662 340.54H717.172C718.032 340.54 718.712 340.32 719.212 339.88C719.732 339.44 719.992 338.77 719.992 337.87C719.992 337.11 719.772 336.47 719.332 335.95C718.892 335.43 718.172 335.17 717.172 335.17H713.662V340.54ZM729.196 352C728.976 352 728.796 351.93 728.656 351.79C728.516 351.65 728.446 351.47 728.446 351.25V331.75C728.446 331.53 728.516 331.35 728.656 331.21C728.796 331.07 728.976 331 729.196 331H743.206C743.426 331 743.606 331.07 743.746 331.21C743.886 331.35 743.956 331.53 743.956 331.75V334.57C743.956 334.79 743.886 334.97 743.746 335.11C743.606 335.25 743.426 335.32 743.206 335.32H733.636V339.37H742.546C742.766 339.37 742.946 339.45 743.086 339.61C743.226 339.75 743.296 339.93 743.296 340.15V342.76C743.296 342.96 743.226 343.14 743.086 343.3C742.946 343.44 742.766 343.51 742.546 343.51H733.636V347.68H743.446C743.666 347.68 743.846 347.75 743.986 347.89C744.126 348.03 744.196 348.21 744.196 348.43V351.25C744.196 351.47 744.126 351.65 743.986 351.79C743.846 351.93 743.666 352 743.446 352H729.196ZM748.356 352C748.136 352 747.956 351.93 747.816 351.79C747.676 351.65 747.606 351.47 747.606 351.25V331.75C747.606 331.53 747.676 331.35 747.816 331.21C747.956 331.07 748.136 331 748.356 331H756.516C759.096 331 761.126 331.6 762.606 332.8C764.106 333.98 764.856 335.66 764.856 337.84C764.856 339.26 764.506 340.46 763.806 341.44C763.126 342.42 762.226 343.16 761.106 343.66L765.246 351.04C765.306 351.16 765.336 351.27 765.336 351.37C765.336 351.53 765.266 351.68 765.126 351.82C765.006 351.94 764.856 352 764.676 352H760.716C760.336 352 760.056 351.91 759.876 351.73C759.696 351.53 759.566 351.35 759.486 351.19L756.066 344.59H752.976V351.25C752.976 351.47 752.906 351.65 752.766 351.79C752.626 351.93 752.446 352 752.226 352H748.356ZM752.976 340.36H756.456C757.396 340.36 758.096 340.13 758.556 339.67C759.036 339.21 759.276 338.58 759.276 337.78C759.276 337 759.046 336.37 758.586 335.89C758.146 335.41 757.436 335.17 756.456 335.17H752.976V340.36Z" fill="#339AF0"/>
</g>
<defs>
<clipPath id="clip0_203_2">
<rect width="1200" height="600" fill="white"/>
</clipPath>
</defs>
</svg>
